<svg height="512pt" viewBox="-113 0 512 512" width="512pt" xmlns="http://www.w3.org/2000/svg"><path d="m201.4375 294.992188-12.695312 139.238281-3.558594 38.984375c-2.007813 21.964844-20.425782 38.785156-42.480469 38.785156s-40.472656-16.820312-42.480469-38.785156l-3.554687-38.980469-12.699219-139.242187zm0 0" fill="#65bafc"/><path d="m142.703125 353.164062c-4.265625 0-7.726563-3.460937-7.726563-7.726562v-30.90625c0-4.265625 3.460938-7.726562 7.726563-7.726562 4.269531 0 7.726563 3.460937 7.726563 7.726562v30.90625c0 4.265625-3.457032 7.726562-7.726563 7.726562zm0 0" fill="#2ea8fc"/><path d="m201.433594 294.992188-12.691406 139.238281-3.554688 38.984375c-2.007812 21.960937-20.425781 38.785156-42.484375 38.785156-3.789063 0-7.46875-.492188-10.980469-1.433594 16.90625-4.511718 29.824219-19.171875 31.480469-37.351562l3.554687-38.984375 12.703126-139.238281zm0 0" fill="#2ea8fc"/><path d="m188.742188 434.230469-3.554688 38.984375c-2.007812 21.960937-20.425781 38.785156-42.484375 38.785156-3.789063 0-7.46875-.492188-10.980469-1.433594-16.925781-4.5-29.84375-19.160156-31.503906-37.351562l-3.554688-38.984375zm0 0" fill="#ffa964"/><path d="m188.742188 434.230469-3.554688 38.984375c-2.007812 21.960937-20.425781 38.785156-42.484375 38.785156-3.789063 0-7.46875-.492188-10.980469-1.433594 16.90625-4.511718 29.824219-19.171875 31.480469-37.351562l3.554687-38.984375zm0 0" fill="#ff872a"/><path d="m249.742188 107.042969c0 59.117187-47.921876 107.039062-107.039063 107.039062s-107.039063-47.921875-107.039063-107.039062c0-59.117188 47.921876-107.03906275 107.039063-107.03906275s107.039063 47.92187475 107.039063 107.03906275zm0 0" fill="#838383"/><g fill="#5a5a5a"><path d="m249.746094 107.042969c0 59.113281-47.929688 107.042969-107.042969 107.042969-5 0-9.914063-.339844-14.726563-1.015626 52.15625-7.160156 92.316407-51.910156 92.316407-106.027343 0-54.117188-40.15625-98.867188-92.316407-106.027344 4.816407-.675781 9.726563-1.015625 14.726563-1.015625 59.113281 0 107.042969 47.929688 107.042969 107.042969zm0 0"/><path d="m108.652344 76.484375c-4.265625 0-7.75-3.460937-7.75-7.726563 0-4.269531 3.433594-7.726562 7.699218-7.726562h.050782c4.269531 0 7.726562 3.457031 7.726562 7.726562 0 4.265626-3.460937 7.726563-7.726562 7.726563zm0 0"/><path d="m144.191406 76.484375c-4.265625 0-7.75-3.460937-7.75-7.726563 0-4.269531 3.433594-7.726562 7.699219-7.726562h.050781c4.265625 0 7.726563 3.457031 7.726563 7.726562 0 4.265626-3.460938 7.726563-7.726563 7.726563zm0 0"/><path d="m176.804688 76.484375c-4.265626 0-7.75-3.460937-7.75-7.726563 0-4.269531 3.433593-7.726562 7.703124-7.726562h.046876c4.269531 0 7.726562 3.457031 7.726562 7.726562 0 4.265626-3.457031 7.726563-7.726562 7.726563zm0 0"/><path d="m93.804688 114.769531c-4.230469 0-7.707032-3.40625-7.75-7.648437-.042969-4.265625 3.355468-7.761719 7.621093-7.804688h.050781.078126c4.230468 0 7.683593 3.40625 7.726562 7.648438.042969 4.265625-3.382812 7.761718-7.648438 7.804687-.023437 0-.050781 0-.078124 0zm0 0"/><path d="m126.417969 114.769531c-4.230469 0-7.703125-3.40625-7.746094-7.648437-.046875-4.265625 3.355469-7.761719 7.621094-7.804688h.046875.082031c4.230469 0 7.679687 3.40625 7.722656 7.648438.042969 4.265625-3.378906 7.761718-7.648437 7.804687-.023438 0-.050782 0-.078125 0zm0 0"/><path d="m159.035156 114.769531c-4.230468 0-7.707031-3.40625-7.75-7.648437-.042968-4.265625 3.355469-7.761719 7.621094-7.804688h.050781.082031c4.230469 0 7.679688 3.40625 7.722657 7.648438.042969 4.265625-3.378907 7.761718-7.648438 7.804687-.023437 0-.050781 0-.078125 0zm0 0"/><path d="m191.648438 114.769531c-4.230469 0-7.707032-3.410156-7.75-7.648437-.042969-4.265625 3.359374-7.761719 7.625-7.804688h.050781.078125c4.230468 0 7.683594 3.40625 7.722656 7.648438.042969 4.265625-3.378906 7.757812-7.648438 7.800781-.023437.003906-.050781.003906-.078124.003906zm0 0"/><path d="m108.652344 153.054688c-4.265625 0-7.75-3.460938-7.75-7.726563s3.433594-7.726563 7.699218-7.726563h.050782c4.269531 0 7.726562 3.460938 7.726562 7.726563s-3.460937 7.726563-7.726562 7.726563zm0 0"/><path d="m144.191406 153.054688c-4.265625 0-7.75-3.460938-7.75-7.726563s3.433594-7.726563 7.699219-7.726563h.050781c4.265625 0 7.726563 3.460938 7.726563 7.726563s-3.460938 7.726563-7.726563 7.726563zm0 0"/><path d="m176.804688 153.054688c-4.265626 0-7.75-3.460938-7.75-7.726563s3.433593-7.726563 7.703124-7.726563h.046876c4.269531 0 7.726562 3.460938 7.726562 7.726563s-3.457031 7.726563-7.726562 7.726563zm0 0"/></g><path d="m275.664062 320.789062h-265.917968c-5.382813 0-9.746094-4.363281-9.746094-9.746093v-120.84375c0-5.378907 4.363281-9.742188 9.746094-9.742188h265.917968c5.382813 0 9.742188 4.363281 9.742188 9.742188v120.84375c0 5.382812-4.359375 9.746093-9.742188 9.746093zm0 0" fill="#e7e7e7"/><path d="m285.40625 190.203125v120.839844c0 5.378906-4.359375 9.746093-9.746094 9.746093h-21.636718c5.390624 0 9.746093-4.367187 9.746093-9.746093v-120.839844c0-5.390625-4.355469-9.746094-9.746093-9.746094h21.636718c5.386719 0 9.746094 4.359375 9.746094 9.746094zm0 0" fill="#bfbfbf"/><path d="m246.535156 229.519531v39.953125c0 5.386719-4.367187 9.742188-9.742187 9.742188h-188.175781c-5.375 0-9.742188-4.355469-9.742188-9.742188v-39.953125c0-5.386719 4.367188-9.742187 9.742188-9.742187h188.175781c5.375-.003906 9.742187 4.355468 9.742187 9.742187zm0 0" fill="#ff9846"/><path d="m246.535156 229.519531v39.953125c0 5.386719-4.367187 9.742188-9.742187 9.742188h-87.917969l59.453125-59.441406h28.464844c5.375 0 9.742187 4.359374 9.742187 9.746093zm0 0" fill="#65bafc"/><path d="m208.328125 219.773438-59.453125 59.445312h-60.410156l59.441406-59.445312zm0 0" fill="#ff4a59"/></svg>